<?xml version="1.0" encoding="utf-8"?>
<!-- Generator: Adobe Illustrator 27.1.1, SVG Export Plug-In . SVG Version: 6.00 Build 0)  -->
<svg version="1.1" id="Layer_1" xmlns="http://www.w3.org/2000/svg" xmlns:xlink="http://www.w3.org/1999/xlink" 
    viewBox="500 500 1000 1000" style="enable-background:new 0 0 1000 1000;" xml:space="preserve">
<path class="st0" d="M1250.7,1450.1v-377.5h26.3l87.1,199.2c51.6,105.8,21.8,178.3-72.8,178.3H1250.7L1250.7,1450.1z M1250.7,798.8
    h7l192.4,430.5V687.2c0-75.6-61.8-137.4-137.4-137.4h-62.1v122.7h81.9l-68.3,87.8h-13.6V798.8z M729.2,1234
    c-34.2-1.3-63.7-8.4-88.6-21.3v229.2c14.6,5.3,30.3,8.2,46.6,8.2h563.5v-377.5h-120.9l-31.9,76.2l-31.7,76.8H959.5l55.9-124.7h0
    l34.2-74.7l-40.1,46.2h-77.5l-1.3-1.4c-2.8,27.6-10.2,52.3-22.1,74c-15.7,28.5-37.9,50.4-66.8,65.9c-26.9,14.4-57.8,22.1-92.8,23.1
    V1145c24.8-1.5,44.4-10.3,59-26.3c16.1-17.7,24.1-42.8,24.1-75.3v-76.2v-81.8h-78.3v-86.6h78.3h100h191l-39.2,87.2H931.9v101.9
    h134.3h99h77.1l-38.2-93.3l-30.7,73.7H1075l76-169.5h99.7v-38.4h-81.9l40-87.8h42V549.9H687.2c-16.4,0-32.1,2.9-46.6,8.2v487.1h9
    c0.4,32.1,8.5,56.8,24.4,74.1c13.6,14.8,32,23.3,55.3,25.4V1234z M640.6,1212.7c-14.3-7.4-27.1-16.7-38.3-27.9
    c-33.1-32.9-49.9-79.5-50.3-139.7h88.6V558.1c-52.8,19.2-90.7,70-90.7,129.2v625.5c0,59.2,38,110,90.7,129.2V1212.7z"/>
</svg>

